<mxfile host="app.diagrams.net" modified="2023-05-06T13:15:27.085Z" agent="Mozilla/5.0 (Windows NT 10.0; Win64; x64) AppleWebKit/537.36 (KHTML, like Gecko) Chrome/111.0.0.0 Safari/537.36" version="21.1.7" etag="UqJpIilrxfYJOaxu3NKI" type="github">
  <diagram name="第 1 页" id="gma8QKky598iFd0IXUzv">
    <mxGraphModel>
      <root>
        <mxCell id="0" />
        <mxCell id="1" parent="0" />
      </root>
    </mxGraphModel>
  </diagram>
</mxfile>
